<svg width="20" height="20" viewBox="0 0 20 20" fill="none" xmlns="http://www.w3.org/2000/svg">
<mask id="path-1-inside-1_2713_825" fill="white">
<path d="M13.7531 14.9463C14.0138 15.3744 14.0919 15.8776 13.9731 16.3644C13.855 16.8507 13.5538 17.2626 13.1256 17.5232L11.5731 18.4682C11.275 18.6494 10.9406 18.7407 10.6038 18.7407C10.3013 18.7407 9.99626 18.6676 9.71314 18.5201C6.45314 16.8294 4.59189 14.3188 3.77251 12.9732C1.95689 9.99069 1.57564 7.05193 1.57501 5.11256C1.57501 4.45881 1.91126 3.86256 2.47501 3.51881L4.02814 2.57381C4.45564 2.31318 4.95876 2.23506 5.44626 2.35381C5.93251 2.47193 6.34439 2.77256 6.60439 3.20068L7.57939 4.80193C8.11689 5.68568 7.83564 6.84131 6.95251 7.37881L6.14814 7.86818C5.90689 8.01506 5.78939 8.31006 5.87001 8.56881C6.13564 9.42818 6.50814 10.2538 6.97626 11.0232C7.44314 11.7901 8.00501 12.4988 8.64501 13.1301C8.84314 13.3251 9.15251 13.3569 9.39814 13.2076L10.2019 12.7182C11.0838 12.1794 12.2406 12.4613 12.7788 13.3444L13.7538 14.9463H13.7531ZM10.0556 7.43381C11.4181 7.64381 12.355 8.92381 12.145 10.2857C12.0925 10.6269 12.3263 10.9463 12.6675 10.9988C12.7 11.0038 12.7319 11.0063 12.7638 11.0063C13.0669 11.0063 13.3331 10.7851 13.3806 10.4763C13.6956 8.43256 12.29 6.51381 10.2469 6.19818C9.90626 6.14693 9.58626 6.37943 9.53376 6.72006C9.48126 7.06131 9.71501 7.38068 10.0556 7.43318V7.43381ZM10.6275 3.72756C10.2894 3.67506 9.96689 3.90881 9.91439 4.25006C9.86189 4.59068 10.0956 4.91006 10.4369 4.96318C11.7569 5.16693 12.9181 5.87256 13.7075 6.95006C14.4969 8.02756 14.8194 9.34756 14.6156 10.6676C14.5631 11.0082 14.7969 11.3276 15.1381 11.3807C15.17 11.3857 15.2025 11.3882 15.2344 11.3882C15.5375 11.3882 15.8038 11.1669 15.8513 10.8582C16.1063 9.20818 15.7031 7.55818 14.7163 6.21131C13.7294 4.86443 12.2775 3.98256 10.6275 3.72756ZM11.0088 1.25693C10.6688 1.20631 10.3481 1.43818 10.2956 1.77943C10.2431 2.12006 10.4769 2.43943 10.8181 2.49256C14.905 3.12318 17.7169 6.96131 17.0863 11.0488C17.0338 11.3894 17.2675 11.7088 17.6088 11.7619C17.6406 11.7669 17.6731 11.7694 17.705 11.7694C18.0081 11.7694 18.2744 11.5482 18.3219 11.2394C19.0581 6.47131 15.7775 1.99381 11.0088 1.25756V1.25693Z"/>
</mask>
<path d="M13.7531 14.9463C14.0138 15.3744 14.0919 15.8776 13.9731 16.3644C13.855 16.8507 13.5538 17.2626 13.1256 17.5232L11.5731 18.4682C11.275 18.6494 10.9406 18.7407 10.6038 18.7407C10.3013 18.7407 9.99626 18.6676 9.71314 18.5201C6.45314 16.8294 4.59189 14.3188 3.77251 12.9732C1.95689 9.99069 1.57564 7.05193 1.57501 5.11256C1.57501 4.45881 1.91126 3.86256 2.47501 3.51881L4.02814 2.57381C4.45564 2.31318 4.95876 2.23506 5.44626 2.35381C5.93251 2.47193 6.34439 2.77256 6.60439 3.20068L7.57939 4.80193C8.11689 5.68568 7.83564 6.84131 6.95251 7.37881L6.14814 7.86818C5.90689 8.01506 5.78939 8.31006 5.87001 8.56881C6.13564 9.42818 6.50814 10.2538 6.97626 11.0232C7.44314 11.7901 8.00501 12.4988 8.64501 13.1301C8.84314 13.3251 9.15251 13.3569 9.39814 13.2076L10.2019 12.7182C11.0838 12.1794 12.2406 12.4613 12.7788 13.3444L13.7538 14.9463H13.7531ZM10.0556 7.43381C11.4181 7.64381 12.355 8.92381 12.145 10.2857C12.0925 10.6269 12.3263 10.9463 12.6675 10.9988C12.7 11.0038 12.7319 11.0063 12.7638 11.0063C13.0669 11.0063 13.3331 10.7851 13.3806 10.4763C13.6956 8.43256 12.29 6.51381 10.2469 6.19818C9.90626 6.14693 9.58626 6.37943 9.53376 6.72006C9.48126 7.06131 9.71501 7.38068 10.0556 7.43318V7.43381ZM10.6275 3.72756C10.2894 3.67506 9.96689 3.90881 9.91439 4.25006C9.86189 4.59068 10.0956 4.91006 10.4369 4.96318C11.7569 5.16693 12.9181 5.87256 13.7075 6.95006C14.4969 8.02756 14.8194 9.34756 14.6156 10.6676C14.5631 11.0082 14.7969 11.3276 15.1381 11.3807C15.17 11.3857 15.2025 11.3882 15.2344 11.3882C15.5375 11.3882 15.8038 11.1669 15.8513 10.8582C16.1063 9.20818 15.7031 7.55818 14.7163 6.21131C13.7294 4.86443 12.2775 3.98256 10.6275 3.72756ZM11.0088 1.25693C10.6688 1.20631 10.3481 1.43818 10.2956 1.77943C10.2431 2.12006 10.4769 2.43943 10.8181 2.49256C14.905 3.12318 17.7169 6.96131 17.0863 11.0488C17.0338 11.3894 17.2675 11.7088 17.6088 11.7619C17.6406 11.7669 17.6731 11.7694 17.705 11.7694C18.0081 11.7694 18.2744 11.5482 18.3219 11.2394C19.0581 6.47131 15.7775 1.99381 11.0088 1.25756V1.25693Z" fill="#46BC8A"/>
<path d="M13.7531 14.9463V-1.05369H-14.7185L0.0863444 23.2661L13.7531 14.9463ZM13.9731 16.3644L-1.57119 12.5731L-1.57293 12.5803L-1.57466 12.5874L13.9731 16.3644ZM13.1256 17.5232L21.4448 31.1904L21.4454 31.19L13.1256 17.5232ZM11.5731 18.4682L19.885 32.1398L19.8923 32.1354L11.5731 18.4682ZM9.71314 18.5201L17.1056 4.33024L17.0924 4.32333L17.0791 4.31644L9.71314 18.5201ZM3.77251 12.9732L-9.89428 21.293L-9.89332 21.2945L3.77251 12.9732ZM1.57501 5.11256H-14.425L-14.425 5.11772L1.57501 5.11256ZM2.47501 3.51881L-5.8417 -10.1499L-5.8482 -10.1459L-5.85471 -10.1419L2.47501 3.51881ZM4.02814 2.57381L12.3448 16.2425L12.3568 16.2352L4.02814 2.57381ZM5.44626 2.35381L1.65955 17.8993L1.66923 17.9016L5.44626 2.35381ZM6.60439 3.20068L-7.07126 11.5059L-7.06641 11.5139L-7.06155 11.5219L6.60439 3.20068ZM7.57939 4.80193L21.2496 -3.51231L21.2453 -3.51924L7.57939 4.80193ZM6.95251 7.37881L15.2686 21.0478L15.2711 21.0464L6.95251 7.37881ZM6.14814 7.86818L-2.16798 -5.80084L-2.17214 -5.79831L6.14814 7.86818ZM5.87001 8.56881L21.1565 3.84391L21.1511 3.82646L21.1456 3.80902L5.87001 8.56881ZM6.97626 11.0232L-6.69242 19.3399L-6.69027 19.3434L6.97626 11.0232ZM8.64501 13.1301L-2.59056 24.5214L-2.58449 24.5274L-2.57841 24.5333L8.64501 13.1301ZM9.39814 13.2076L17.7118 26.8781L17.719 26.8737L9.39814 13.2076ZM10.2019 12.7182L18.5227 26.3843L18.5329 26.3781L18.5431 26.3719L10.2019 12.7182ZM12.7788 13.3444L26.4461 5.02562L26.442 5.01884L12.7788 13.3444ZM13.7538 14.9463V30.9463H42.2231L27.4211 6.62749L13.7538 14.9463ZM10.0556 7.43381H-5.94436V21.1567L7.61836 23.2471L10.0556 7.43381ZM12.145 10.2857L-3.6681 7.84732L-3.66894 7.85277L12.145 10.2857ZM12.6675 10.9988L15.1004 -4.81514L12.6675 10.9988ZM13.3806 10.4763L-2.43264 8.03903L-2.43331 8.04339L13.3806 10.4763ZM10.2469 6.19818L12.6896 -9.61425L12.6585 -9.61905L12.6274 -9.62373L10.2469 6.19818ZM9.53376 6.72006L-6.27951 4.28278L-6.28019 4.28714L9.53376 6.72006ZM10.0556 7.43318H26.0556V-6.28969L12.4929 -8.38009L10.0556 7.43318ZM10.6275 3.72756L8.17264 19.5381L8.1838 19.5398L10.6275 3.72756ZM9.91439 4.25006L25.7277 6.68733L25.7283 6.68297L9.91439 4.25006ZM10.4369 4.96318L7.97569 20.7728L7.98589 20.7743L7.9961 20.7759L10.4369 4.96318ZM14.6156 10.6676L-1.1971 8.22677L-1.19764 8.23029L14.6156 10.6676ZM15.1381 11.3807L17.6176 -4.42603L17.6085 -4.42746L17.5993 -4.42888L15.1381 11.3807ZM15.8513 10.8582L0.0389762 8.41447L0.0373144 8.42527L15.8513 10.8582ZM11.0088 1.25693H27.0088V-12.5371L13.3651 -14.5686L11.0088 1.25693ZM10.2956 1.77943L26.1089 4.21671L26.1096 4.21235L10.2956 1.77943ZM10.8181 2.49256L8.35694 18.3021L8.36754 18.3038L8.37814 18.3054L10.8181 2.49256ZM17.0863 11.0488L1.27335 8.60917L1.27299 8.61153L17.0863 11.0488ZM17.6088 11.7619L20.0882 -4.04478L20.0791 -4.04621L20.07 -4.04763L17.6088 11.7619ZM18.3219 11.2394L2.50928 8.7978L2.50794 8.80652L18.3219 11.2394ZM11.0088 1.25756H-4.99124V14.9769L8.56744 17.0702L11.0088 1.25756ZM0.0863444 23.2661C-1.85978 20.0692 -2.45962 16.2157 -1.57119 12.5731L29.5175 20.1557C30.6434 15.5394 29.8873 10.6796 27.4199 6.62653L0.0863444 23.2661ZM-1.57466 12.5874C-0.688814 8.9409 1.61507 5.79881 4.80585 3.8564L21.4454 31.19C25.4925 28.7263 28.3988 24.7605 29.5209 20.1415L-1.57466 12.5874ZM4.80649 3.85601L3.25399 4.80101L19.8923 32.1354L21.4448 31.1904L4.80649 3.85601ZM3.26126 4.79658C5.48785 3.44289 8.03219 2.74069 10.6038 2.74069V34.7407C13.8491 34.7407 17.0622 33.856 19.885 32.1398L3.26126 4.79658ZM10.6038 2.74069C12.8921 2.74069 15.1212 3.29639 17.1056 4.33024L2.32065 32.7099C4.87135 34.0387 7.71038 34.7407 10.6038 34.7407V2.74069ZM17.0791 4.31644C17.2255 4.39238 17.3029 4.46746 17.3222 4.48734C17.3331 4.49869 17.3429 4.51003 17.3554 4.52654C17.3679 4.54316 17.3949 4.58047 17.4383 4.65182L-9.89332 21.2945C-8.1841 24.1015 -4.41248 29.2181 2.34719 32.7237L17.0791 4.31644ZM17.4393 4.6534C17.4973 4.74864 17.5363 4.85457 17.5556 4.93559C17.5706 4.99845 17.575 5.04766 17.575 5.1074L-14.425 5.11772C-14.4237 9.06158 -13.6548 15.1157 -9.89428 21.293L17.4393 4.6534ZM17.575 5.11256C17.575 10.0942 14.9568 14.6478 10.8047 17.1795L-5.85471 -10.1419C-11.1343 -6.92267 -14.425 -1.17656 -14.425 5.11256H17.575ZM10.7917 17.1875L12.3448 16.2425L-4.28857 -11.0949L-5.8417 -10.1499L10.7917 17.1875ZM12.3568 16.2352C9.14974 18.1904 5.29308 18.7843 1.65955 17.8993L9.23297 -13.1916C4.62445 -14.3142 -0.238461 -13.564 -4.30052 -11.0876L12.3568 16.2352ZM1.66923 17.9016C-1.96364 17.0191 -5.11867 14.7211 -7.07126 11.5059L20.28 -5.10453C17.8074 -9.17599 13.8287 -12.0752 9.2233 -13.194L1.66923 17.9016ZM-7.06155 11.5219L-6.08656 13.1231L21.2453 -3.51924L20.2703 -5.12049L-7.06155 11.5219ZM-6.09078 13.1162C-10.1418 6.45555 -8.03337 -2.23076 -1.36603 -6.28874L15.2711 21.0464C23.7046 15.9134 26.3756 4.91582 21.2495 -3.51231L-6.09078 13.1162ZM-1.36361 -6.29021L-2.16798 -5.80084L14.4643 21.5372L15.2686 21.0478L-1.36361 -6.29021ZM-2.17214 -5.79831C-8.28101 -2.07917 -11.8084 5.61737 -9.4056 13.3286L21.1456 3.80902C23.3871 11.0027 20.0948 18.1093 14.4684 21.5347L-2.17214 -5.79831ZM-9.41643 13.2937C-8.75928 15.4198 -7.84167 17.451 -6.69242 19.3399L20.6449 2.7065C20.8579 3.05658 21.0306 3.4366 21.1565 3.84391L-9.41643 13.2937ZM-6.69027 19.3434C-5.53731 21.2372 -4.15728 22.9761 -2.59056 24.5214L19.8806 1.73875C20.1673 2.02155 20.4236 2.34291 20.6428 2.70297L-6.69027 19.3434ZM-2.57841 24.5333C3.09144 30.1138 11.505 30.6527 17.7118 26.8781L1.0845 -0.462973C6.79998 -3.9388 14.5948 -3.46364 19.8684 1.72678L-2.57841 24.5333ZM17.719 26.8737L18.5227 26.3843L1.88105 -0.947967L1.0773 -0.458592L17.719 26.8737ZM18.5431 26.3719C11.8518 30.4597 3.16313 28.3126 -0.884493 21.67L26.442 5.01884C21.3181 -3.39003 10.3157 -6.10083 1.86064 -0.935519L18.5431 26.3719ZM-0.888618 21.6633L0.0863827 23.2651L27.4211 6.62749L26.4461 5.02562L-0.888618 21.6633ZM13.7538 -1.05369H13.7531V30.9463H13.7538V-1.05369ZM7.61836 23.2471C0.238442 22.1096 -4.80351 15.2106 -3.6681 7.84732L27.9581 12.7241C29.5135 2.63698 22.5978 -6.82201 12.4929 -8.37947L7.61836 23.2471ZM-3.66894 7.85277C-5.06245 16.9106 1.14236 25.4139 10.2346 26.8128L15.1004 -4.81514C23.5102 -3.52133 29.2475 4.34325 27.959 12.7186L-3.66894 7.85277ZM10.2346 26.8128C11.0385 26.9364 11.884 27.0063 12.7638 27.0063V-4.99369C13.5798 -4.99369 14.3615 -4.92881 15.1004 -4.81514L10.2346 26.8128ZM12.7638 27.0063C20.846 27.0063 27.9284 21.1393 29.1946 12.9092L-2.43331 8.04339C-1.26214 0.430783 5.28774 -4.99369 12.7638 -4.99369V27.0063ZM29.1939 12.9136C30.8543 2.14082 23.4659 -7.94952 12.6896 -9.61425L7.80416 22.0106C1.11416 20.9771 -3.46303 14.7243 -2.43264 8.03903L29.1939 12.9136ZM12.6274 -9.62373C3.67716 -10.9704 -4.86802 -4.8751 -6.27951 4.28278L25.347 9.15733C24.0405 17.634 16.1354 23.2642 7.86634 22.0201L12.6274 -9.62373ZM-6.28019 4.28714C-7.67226 13.3356 -1.47881 21.8443 7.61836 23.2465L12.4929 -8.38009C20.9088 -7.08296 26.6348 0.78697 25.3477 9.15297L-6.28019 4.28714ZM-5.94436 7.43318V7.43381H26.0556V7.43318H-5.94436ZM13.0824 -12.083C4.04324 -13.4865 -4.49601 -7.30593 -5.89956 1.81714L25.7283 6.68297C24.4298 15.1235 16.5355 20.8366 8.17264 19.5381L13.0824 -12.083ZM-5.89889 1.81278C-7.2981 10.891 -1.07409 19.3639 7.97569 20.7728L12.8981 -10.8464C21.2654 -9.54379 27.0219 -1.70964 25.7277 6.68733L-5.89889 1.81278ZM7.9961 20.7759C5.12008 20.332 2.51747 18.7494 0.80051 16.4057L26.6145 -2.50559C23.3188 -7.00425 18.3937 -9.99812 12.8777 -10.8495L7.9961 20.7759ZM0.80051 16.4057C-0.91745 14.0607 -1.64084 11.1016 -1.1971 8.22677L30.4284 13.1084C31.2796 7.59357 29.9112 1.99443 26.6145 -2.50559L0.80051 16.4057ZM-1.19764 8.23029C-2.59686 17.3086 3.6272 25.7814 12.6769 27.1903L17.5993 -4.42888C25.9666 -3.12629 31.7231 4.70782 30.4289 13.1048L-1.19764 8.23029ZM12.6587 27.1874C13.5165 27.322 14.3781 27.3882 15.2344 27.3882V-4.61181C16.0269 -4.61181 16.8235 -4.55059 17.6176 -4.42603L12.6587 27.1874ZM15.2344 27.3882C23.3167 27.3882 30.399 21.5212 31.6652 13.2911L0.0373144 8.42527C1.20848 0.812679 7.75835 -4.61181 15.2344 -4.61181V27.3882ZM31.6635 13.3019C32.5671 7.4551 31.1174 1.52448 27.6225 -3.24532L1.80997 15.6679C0.288827 13.5919 -0.354617 10.9613 0.0389799 8.41447L31.6635 13.3019ZM27.6225 -3.24532C24.1283 -8.01418 18.913 -11.1819 13.0712 -12.0847L8.1838 19.5398C5.64201 19.147 3.33044 17.7431 1.80997 15.6679L27.6225 -3.24532ZM13.3651 -14.5686C4.45675 -15.895 -4.10503 -9.83982 -5.51831 -0.653481L26.1096 4.21235C24.8013 12.7162 16.8808 18.3076 8.65239 17.0825L13.3651 -14.5686ZM-5.51764 -0.657841C-6.91686 8.42042 -0.692801 16.8933 8.35694 18.3021L13.2793 -13.317C21.6466 -12.0144 27.4031 -4.18031 26.1089 4.21671L-5.51764 -0.657841ZM8.37814 18.3054C3.73056 17.5883 0.556838 13.2534 1.27335 8.60917L32.8992 13.4884C34.8769 0.669253 26.0795 -11.3419 13.2581 -13.3203L8.37814 18.3054ZM1.27299 8.61153C-0.126228 17.6898 6.0978 26.1627 15.1476 27.5715L20.07 -4.04763C28.4372 -2.74504 34.1938 5.0891 32.8995 13.4861L1.27299 8.61153ZM15.1293 27.5686C15.9875 27.7033 16.8491 27.7694 17.705 27.7694V-4.23056C18.4972 -4.23056 19.2938 -4.1694 20.0882 -4.04478L15.1293 27.5686ZM17.705 27.7694C25.7872 27.7694 32.8697 21.9025 34.1358 13.6723L2.50794 8.80652C3.67912 1.19385 10.2291 -4.23056 17.705 -4.23056V27.7694ZM34.1345 13.6811C36.2197 0.176749 26.949 -12.471 13.4501 -14.5551L8.56744 17.0702C4.606 16.4586 1.89657 12.7659 2.50928 8.7978L34.1345 13.6811ZM27.0088 1.25756V1.25693H-4.99124V1.25756H27.0088Z" fill="#46BC8A" mask="url(#path-1-inside-1_2713_825)"/>
</svg>
