<svg width="19" height="20" viewBox="0 0 19 20" fill="none" xmlns="http://www.w3.org/2000/svg">
<g clip-path="url(#clip0_41_1231)">
<path d="M15.4701 13.753C14.3151 12.7768 13.6528 11.3498 13.6528 9.8381V7.70837C13.6528 5.02025 11.656 2.79504 9.06945 2.42226V1.59726C9.06945 1.17483 8.72723 0.833374 8.30556 0.833374C7.88389 0.833374 7.54167 1.17483 7.54167 1.59726V2.42226C4.95438 2.79504 2.95834 5.02025 2.95834 7.70837V9.8381C2.95834 11.3498 2.29605 12.7768 1.13417 13.7591C0.837019 14.0135 0.666672 14.3832 0.666672 14.7743C0.666672 15.5115 1.26632 16.1112 2.00348 16.1112H14.6076C15.3448 16.1112 15.9445 15.5115 15.9445 14.7743C15.9445 14.3832 15.7741 14.0135 15.4701 13.753Z" fill="#46BC8A"/>
<path d="M8.30556 19.1667C9.68896 19.1667 10.8463 18.1805 11.1121 16.875H5.49903C5.76486 18.1805 6.92216 19.1667 8.30556 19.1667Z" fill="#46BC8A"/>
<rect x="7.16667" y="1.33337" width="11" height="11" rx="5.5" fill="#C50030"/>
<rect x="7.16667" y="1.33337" width="11" height="11" rx="5.5" stroke="#F5FBF9"/>
<path d="M12.4307 9.83337V5.73737L11.1827 6.45737L10.8147 5.66537L12.5667 4.55337H13.5187V9.83337H12.4307Z" fill="#F5FBF9"/>
</g>
<defs>
<clipPath id="clip0_41_1231">
<rect width="17.5" height="18.3333" fill="white" transform="translate(0.666672 0.833374)"/>
</clipPath>
</defs>
</svg>
