<svg width="20" height="16" viewBox="0 0 20 16" fill="none" xmlns="http://www.w3.org/2000/svg">
<g clip-path="url(#clip0_41_1224)">
<path d="M16.8604 1.99522C14.8665 0.00186348 11.6229 0.00186348 9.62952 1.99522L9.16653 2.45794L8.7038 1.99522C6.71045 0.00159356 3.46652 0.00159356 1.47317 1.99522C-0.479716 3.9481 -0.492397 7.04363 1.44376 9.19591C3.20966 11.1582 8.41781 15.3978 8.63878 15.5772C8.7888 15.6991 8.9693 15.7585 9.14872 15.7585C9.15466 15.7585 9.16059 15.7585 9.16626 15.7582C9.35189 15.7669 9.53887 15.7032 9.69374 15.5772C9.91471 15.3978 15.1234 11.1582 16.8898 9.19564C18.8257 7.04363 18.813 3.9481 16.8604 1.99522ZM15.6865 8.11289C14.3096 9.64244 10.525 12.7971 9.16626 13.9165C7.8075 12.7973 4.02368 9.64298 2.64711 8.11316C1.29644 6.61194 1.28376 4.47396 2.6177 3.14002C3.29897 2.45902 4.19366 2.11825 5.08835 2.11825C5.98304 2.11825 6.87773 2.45875 7.559 3.14002L8.57672 4.15775C8.69787 4.27889 8.85058 4.3512 9.01085 4.37656C9.27095 4.43241 9.55317 4.35983 9.75552 4.15802L10.7738 3.14002C12.1366 1.77775 14.3534 1.77802 15.7154 3.14002C17.0493 4.47396 17.0366 6.61194 15.6865 8.11289Z" fill="#46BC8A"/>
<path d="M15.6865 8.11289C14.3096 9.64244 10.525 12.7971 9.16626 13.9165C7.8075 12.7973 4.02368 9.64298 2.64711 8.11316C1.29644 6.61194 1.28376 4.47396 2.6177 3.14002C3.29897 2.45902 4.19366 2.11825 5.08835 2.11825C5.98304 2.11825 6.87773 2.45875 7.559 3.14002L8.57672 4.15775C8.69787 4.27889 8.85058 4.3512 9.01085 4.37656C9.27095 4.43241 9.55317 4.35983 9.75552 4.15802L10.7738 3.14002C12.1366 1.77775 14.3534 1.77802 15.7154 3.14002C17.0493 4.47396 17.0366 6.61194 15.6865 8.11289Z" fill="#46BC8A"/>
<rect x="8.5" y="1" width="11" height="11" rx="5.5" fill="#C50030"/>
<rect x="8.5" y="1" width="11" height="11" rx="5.5" stroke="#F5FBF9"/>
<path d="M13.764 9.5V5.404L12.516 6.124L12.148 5.332L13.9 4.22H14.852V9.5H13.764Z" fill="#F5FBF9"/>
</g>
<defs>
<clipPath id="clip0_41_1224">
<rect width="20" height="15.259" fill="white" transform="translate(3.05176e-05 0.5)"/>
</clipPath>
</defs>
</svg>
