<svg width="20" height="20" viewBox="0 0 20 20" fill="none" xmlns="http://www.w3.org/2000/svg">
<path d="M10 0.5C12.6316 0.5 14.7734 2.64181 14.7734 5.27344C14.7734 7.90507 12.6316 10.0469 10 10.0469C7.36837 10.0469 5.22656 7.90507 5.22656 5.27344C5.22656 2.64181 7.36837 0.5 10 0.5Z" fill="#46BC8A" stroke="#46BC8A"/>
<path d="M16.5612 13.992C15.1174 12.5261 13.2035 11.7188 11.1719 11.7188H8.82812C6.79656 11.7188 4.88258 12.5261 3.43883 13.992C2.00215 15.4507 1.21094 17.3763 1.21094 19.4141C1.21094 19.7377 1.47328 20 1.79688 20H18.2031C18.5267 20 18.7891 19.7377 18.7891 19.4141C18.7891 17.3763 17.9979 15.4507 16.5612 13.992Z" fill="#46BC8A"/>
</svg>
