<svg width="20" height="14" viewBox="0 0 20 14" fill="none" xmlns="http://www.w3.org/2000/svg">
<path d="M1.07752 6.41089L6.91085 0.577555C7.06802 0.425756 7.27852 0.341761 7.49702 0.343659C7.71552 0.345558 7.92453 0.433199 8.07904 0.587706C8.23354 0.742213 8.32118 0.951223 8.32308 1.16972C8.32498 1.38822 8.24099 1.59872 8.08919 1.75589L3.67835 6.16672H18.3334C18.5544 6.16672 18.7663 6.25452 18.9226 6.4108C19.0789 6.56708 19.1667 6.77904 19.1667 7.00005C19.1667 7.22107 19.0789 7.43303 18.9226 7.58931C18.7663 7.74559 18.5544 7.83339 18.3334 7.83339H3.67835L8.08919 12.2442C8.16878 12.3211 8.23226 12.413 8.27594 12.5147C8.31961 12.6164 8.3426 12.7257 8.34356 12.8364C8.34452 12.947 8.32344 13.0568 8.28154 13.1592C8.23964 13.2616 8.17776 13.3546 8.09952 13.4329C8.02127 13.5111 7.92823 13.573 7.82582 13.6149C7.7234 13.6568 7.61367 13.6779 7.50302 13.6769C7.39237 13.676 7.28302 13.653 7.18135 13.6093C7.07968 13.5656 6.98773 13.5021 6.91085 13.4226L1.07752 7.58922C0.921295 7.43295 0.833532 7.22102 0.833532 7.00005C0.833532 6.77908 0.921295 6.56716 1.07752 6.41089Z" fill="#46BC8A"/>
</svg>
